# xmcd
# 
# Track frame offsets:
#     150
#     16443
#     40877
#     63841
#     84801
#     115735
#     134739
#     152846
#     169223
#     185509
# 
# Disc length: 2749
# 
# Revision: 0
# Processed by: cddbd v1.5.2PL0 Copyright (c) Steve Scherf et al.
# Submitted via: fre:ac v1.0.31
# 
DISCID=7e0abb0a
DTITLE=Various Artist - The Central Element
DYEAR=2011
DGENRE=Progressive Rock
TTITLE0=Stars in Battledress - Fluid English
TTITLE1=Knifeworld - In a Foreign Way
TTITLE2=William D Drake - Bond of the Herd
TTITLE3=Thumpermonkey - Wheezyboy
TTITLE4=Sanguine Hum - The Eternal Abyss (Excerpt)
TTITLE5=Admirals Hard - Whip Jamboree
TTITLE6=Arch Garrison - Six Feet Under Yeah
TTITLE7=The Monsoon Bassoon - Siizdabedah
TTITLE8=Matt Stevens - Peccadillo
TTITLE9=Redbus Noface - Jack Blind Acid
EXTD=
EXTT0=
EXTT1=
EXTT2=
EXTT3=
EXTT4=
EXTT5=
EXTT6=
EXTT7=
EXTT8=
EXTT9=
PLAYORDER=
